<?xml version="1.0" encoding="utf-8"?>
<!-- Generator: Adobe Illustrator 23.0.0, SVG Export Plug-In . SVG Version: 6.00 Build 0)  -->
<svg version="1.1" id="Layer_1" xmlns="http://www.w3.org/2000/svg" xmlns:xlink="http://www.w3.org/1999/xlink" x="0px" y="0px"
	 viewBox="0 0 512 512" style="enable-background:new 0 0 512 512;" xml:space="preserve">
<style type="text/css">
	.st0{fill:#FFFFFF;}
</style>
<g>
	<path class="st0" d="M239.86,401.94h-4.37c-30.77,0-57.56-11.57-80.39-34.73c-22.83-23.15-34.24-50.1-34.24-80.87
		c0-30.76,11.33-57.39,34-79.9c22.66-22.5,50.67-33.76,84.03-33.76c33.35,0,62,13.28,85.97,39.83L172.35,363.08
		c21.05,16.84,41.29,25.26,60.71,25.26s36.83-4.45,52.21-13.36c15.38-8.9,28.09-20.8,38.13-35.7v24.77
		C300.41,389.31,272.57,401.94,239.86,401.94z M234.76,186.28c-25.74,0-48.57,9.96-68.49,29.87
		c-19.91,19.91-29.87,42.83-29.87,68.73c0,25.91,8.58,48.57,25.74,68l141.34-140.37C283.41,195.02,260.51,186.28,234.76,186.28z"/>
	<g>
		<path class="st0" d="M361.78,138.77l29.35,44.27h-6l-26.27-39.73l-26.11,39.73h-5.19l28.71-43.79l-19.3-29.19h6l16.22,24.65
			l16.22-24.65h5.19L361.78,138.77z"/>
	</g>
</g>
</svg>
