<?xml version="1.0" encoding="utf-8"?>
<!-- Generator: Adobe Illustrator 23.0.0, SVG Export Plug-In . SVG Version: 6.00 Build 0)  -->
<svg version="1.1" id="Layer_1" xmlns="http://www.w3.org/2000/svg" xmlns:xlink="http://www.w3.org/1999/xlink" x="0px" y="0px"
	 viewBox="0 0 512 512" style="enable-background:new 0 0 512 512;" xml:space="preserve">
<g>
	<path d="M239.9,401.9h-4.4c-30.8,0-57.6-11.6-80.4-34.7c-22.8-23.1-34.2-50.1-34.2-80.9c0-30.8,11.3-57.4,34-79.9
		c22.7-22.5,50.7-33.8,84-33.8c33.3,0,62,13.3,86,39.8L172.4,363.1c21.1,16.8,41.3,25.3,60.7,25.3s36.8-4.5,52.2-13.4
		c15.4-8.9,28.1-20.8,38.1-35.7V364C300.4,389.3,272.6,401.9,239.9,401.9z M234.8,186.3c-25.7,0-48.6,10-68.5,29.9
		c-19.9,19.9-29.9,42.8-29.9,68.7c0,25.9,8.6,48.6,25.7,68l141.3-140.4C283.4,195,260.5,186.3,234.8,186.3z"/>
	<g>
		<path d="M361.8,138.8l29.4,44.3h-6l-26.3-39.7L332.8,183h-5.2l28.7-43.8L337,110.1h6l16.2,24.6l16.2-24.7h5.2L361.8,138.8z"/>
	</g>
</g>
</svg>
